<svg width="48" height="48" viewBox="0 0 48 48" fill="none" xmlns="http://www.w3.org/2000/svg">
<g clip-path="url(#clip0_6582_10647)">
<path d="M0.5 22H9L0 0C0 0 15.7472 0 24 0C37.2548 0 48 10.7452 48 24C48 37.2548 37.2548 48 24 48C21.4424 48 11.1158 48 11.1158 48L0.5 22Z" fill="#F72A30"/>
<path d="M25.009 17.2777V21.7223C25.009 21.8758 25.1439 22 25.3087 22H31.7003C31.8651 22 32 22.1243 32 22.2777V27.7223C32 27.8757 31.8651 28 31.7003 28H25.3049C25.1401 28 25.0052 28.1243 25.0052 28.2777V37.7223C25.0052 37.8757 24.8704 38 24.7055 38H19.2997C19.1349 38 19 37.8757 19 37.7223V11.2777C19 11.1242 19.1349 11 19.2997 11H33.7003C33.8651 11 34 11.1242 34 11.2777V16.7223C34 16.8758 33.8651 17 33.7003 17H25.3087C25.1401 17 25.009 17.1242 25.009 17.2777Z" fill="white"/>
<path d="M25.009 17.2777V21.7223C25.009 21.8758 25.1439 22 25.3087 22H31.7003C31.8651 22 32 22.1243 32 22.2777V27.7223C32 27.8757 31.8651 28 31.7003 28H25.3049C25.1401 28 25.0052 28.1243 25.0052 28.2777V37.7223C25.0052 37.8757 24.8704 38 24.7055 38H19.2997C19.1349 38 19 37.8757 19 37.7223V11.2777C19 11.1242 19.1349 11 19.2997 11H33.7003C33.8651 11 34 11.1242 34 11.2777V16.7223C34 16.8758 33.8651 17 33.7003 17H25.3087C25.1401 17 25.009 17.1242 25.009 17.2777Z" fill="url(#paint0_linear_6582_10647)"/>
</g>
<defs>
<linearGradient id="paint0_linear_6582_10647" x1="26.5" y1="11" x2="26.5" y2="38" gradientUnits="userSpaceOnUse">
<stop stop-color="white"/>
<stop offset="1" stop-color="white" stop-opacity="0"/>
</linearGradient>
<clipPath id="clip0_6582_10647">
<rect width="48" height="48" fill="white"/>
</clipPath>
</defs>
</svg>
